# xmcd
#
# Track frame offsets: 
#        150
#        12337
#        24229
#        37286
#        45832
#        61706
#        78460
#        93411
#        109286
#        127702
#        144380
#        159752
#        174175
#        190382
#        205811
#
# Disc length: 2955 seconds
#
# Revision: 4
# Processed by: cddbd v1.5.2PL0 Copyright (c) Steve Scherf et al.
# Submitted via: ExactAudioCopy v0.99pb5
#
DISCID=b20b890f
DTITLE=Various Artist - Let It Snow - Best Of Country Christmas
DYEAR=2001
DGENRE=Country
TTITLE0=John Denver - Jingle Bells
TTITLE1=Glen Campbell - Frosty The Snowman
TTITLE2=B. J. Thomas - Let It Snow! Let It Snow! Let It Snow!
TTITLE3=Gene Autry - Santa's Comin' In A Whirlybird
TTITLE4=Hadley Castille and The Louisiana Cajun Band - We Three Kings
TTITLE5=Jean Shepard - O Come All Ye Faithful
TTITLE6=John Denver - Mary's Little Boy Child
TTITLE7=Johnny Cash and Friends - O Christmas Tree
TTITLE8=Dave Dudley - Reverend Nicholas
TTITLE9=Glen Campbell - I Saw Three Ships
TTITLE10=Johnny Paycheck - Christmas Is
TTITLE11=John Denver - Rudolph The Red Nosed Reindeer
TTITLE12=Donna Fargo - O Holy Night
TTITLE13=Johnny Cash - Away In A Manger
TTITLE14=Roy Clark - Silent Night
EXTD=
EXTT0=
EXTT1=
EXTT2=
EXTT3=
EXTT4=
EXTT5=
EXTT6=
EXTT7=
EXTT8=
EXTT9=
EXTT10=
EXTT11=
EXTT12=
EXTT13=
EXTT14=
PLAYORDER=
